M48
;Layer_Color=9474304
;FILE_FORMAT=2:5
INCH,TZ
;TYPE=PLATED
T1F00S00C0.03543
T2F00S00C0.04000
%
T01
X49949Y14484
X115500Y11000
Y28000
X115000Y45000
X37449Y14484
X31000Y86000
Y96000
Y106000
Y116000
Y126000
Y136000
Y146000
Y156000
Y166000
Y176000
Y186000
Y196000
X12500
Y186000
Y176000
Y166000
Y156000
Y146000
Y136000
Y126000
Y116000
Y106000
Y96000
Y86000
X91000
Y96000
Y106000
Y116000
Y126000
Y136000
Y146000
Y156000
Y166000
Y176000
Y186000
Y196000
X109500
Y186000
Y176000
Y166000
Y156000
Y146000
Y136000
Y126000
Y116000
Y106000
Y96000
Y86000
X115000Y65000
X109500Y206000
Y216000
X91000
Y206000
X31000
Y216000
X12500
Y206000
T02
X65500Y61500
X77000Y62000
M30
