G04*
G04 #@! TF.GenerationSoftware,Altium Limited,Altium Designer,20.1.10 (176)*
G04*
G04 Layer_Color=65535*
%FSLAX25Y25*%
%MOIN*%
G70*
G04*
G04 #@! TF.SameCoordinates,D9A27F9E-3A59-452F-8F74-A4506583EE45*
G04*
G04*
G04 #@! TF.FilePolarity,Positive*
G04*
G01*
G75*
%ADD10C,0.00984*%
%ADD11C,0.00787*%
%ADD12C,0.01000*%
%ADD13C,0.00945*%
%ADD14C,0.00500*%
%ADD15C,0.00197*%
%ADD16C,0.00394*%
D10*
X107421Y65000D02*
X106683Y65426D01*
Y64574D01*
X107421Y65000D01*
X107921Y11000D02*
X107183Y11426D01*
Y10574D01*
X107921Y11000D01*
Y28000D02*
X107183Y28426D01*
Y27574D01*
X107921Y28000D01*
X50441Y22555D02*
X49703Y22981D01*
Y22129D01*
X50441Y22555D01*
X37941D02*
X37203Y22981D01*
Y22129D01*
X37941Y22555D01*
X63579Y94724D02*
X62841Y95151D01*
Y94298D01*
X63579Y94724D01*
X107421Y45000D02*
X106683Y45426D01*
Y44574D01*
X107421Y45000D01*
D11*
X82000Y62000D02*
X81898Y63007D01*
X81595Y63972D01*
X81104Y64856D01*
X80445Y65624D01*
X79645Y66243D01*
X78737Y66689D01*
X77757Y66942D01*
X76747Y66994D01*
X75747Y66840D01*
X74798Y66489D01*
X73940Y65954D01*
X73206Y65257D01*
X72628Y64426D01*
X72229Y63497D01*
X72026Y62506D01*
Y61494D01*
X72229Y60503D01*
X72628Y59574D01*
X73206Y58743D01*
X73940Y58046D01*
X74798Y57511D01*
X75747Y57160D01*
X76747Y57006D01*
X77757Y57058D01*
X78737Y57311D01*
X79645Y57757D01*
X80445Y58376D01*
X81104Y59144D01*
X81595Y60028D01*
X81898Y60993D01*
X82000Y62000D01*
X70500Y61500D02*
X70398Y62507D01*
X70095Y63472D01*
X69604Y64356D01*
X68945Y65124D01*
X68145Y65743D01*
X67237Y66189D01*
X66257Y66442D01*
X65247Y66494D01*
X64247Y66340D01*
X63298Y65989D01*
X62440Y65454D01*
X61706Y64757D01*
X61128Y63927D01*
X60729Y62997D01*
X60526Y62006D01*
Y60994D01*
X60729Y60003D01*
X61128Y59074D01*
X61706Y58243D01*
X62440Y57546D01*
X63298Y57011D01*
X64247Y56660D01*
X65247Y56506D01*
X66257Y56558D01*
X67237Y56811D01*
X68145Y57257D01*
X68945Y57876D01*
X69604Y58644D01*
X70095Y59528D01*
X70398Y60493D01*
X70500Y61500D01*
X109488Y59488D02*
X120512D01*
Y70512D01*
X109488D02*
X120512D01*
X109488Y59488D02*
Y70512D01*
X109988Y5488D02*
X121012D01*
Y16512D01*
X109988D02*
X121012D01*
X109988Y5488D02*
Y16512D01*
Y22488D02*
X121012D01*
Y33512D01*
X109988D02*
X121012D01*
X109988Y22488D02*
Y33512D01*
X44437Y8972D02*
Y19996D01*
Y8972D02*
X55461D01*
Y19996D01*
X44437D02*
X55461D01*
X31937Y8972D02*
Y19996D01*
Y8972D02*
X42961D01*
Y19996D01*
X31937D02*
X42961D01*
X50094Y89016D02*
X61906D01*
X50094Y90984D02*
X61906D01*
X50094Y89016D02*
Y90984D01*
X61906Y89016D02*
Y90984D01*
X109488Y39488D02*
X120512D01*
Y50512D01*
X109488D02*
X120512D01*
X109488Y39488D02*
Y50512D01*
X103500Y80000D02*
X116000D01*
Y212000D02*
Y222000D01*
X103500Y80000D02*
Y222000D01*
X116000D01*
Y80000D02*
Y212000D01*
X6500Y80000D02*
X19000D01*
Y212000D02*
Y222000D01*
X6500Y80000D02*
Y222000D01*
X19000D01*
Y80000D02*
Y212000D01*
X85000Y80000D02*
X97500D01*
Y212000D02*
Y222000D01*
X85000Y80000D02*
Y222000D01*
X97500D01*
Y80000D02*
Y212000D01*
X25000Y80000D02*
X37500D01*
Y212000D02*
Y222000D01*
X25000Y80000D02*
Y222000D01*
X37500D01*
Y80000D02*
Y212000D01*
D12*
X51737Y37471D02*
X51624Y36654D01*
X52427Y36843D01*
X51961Y37524D01*
X23961Y34024D02*
X54961D01*
Y62024D01*
X23961D02*
X54961D01*
X23961Y34024D02*
Y62024D01*
X68500Y111000D02*
X63502D01*
Y113499D01*
X64335Y114332D01*
X66001D01*
X66834Y113499D01*
Y111000D01*
Y112666D02*
X68500Y114332D01*
X63502Y119331D02*
Y115998D01*
X68500D01*
Y119331D01*
X66001Y115998D02*
Y117665D01*
X63502Y120997D02*
X66834D01*
X68500Y122663D01*
X66834Y124329D01*
X63502D01*
X68500Y125995D02*
X67667D01*
Y126828D01*
X68500D01*
Y125995D01*
Y135159D02*
Y136825D01*
Y135992D01*
X63502D01*
X64335Y135159D01*
X68500Y144323D02*
X63502D01*
Y146822D01*
X64335Y147655D01*
X66001D01*
X66834Y146822D01*
Y144323D01*
X65168Y149321D02*
X68500D01*
X66834D01*
X66001Y150154D01*
X65168Y150987D01*
Y151820D01*
X68500Y155152D02*
Y156818D01*
X67667Y157652D01*
X66001D01*
X65168Y156818D01*
Y155152D01*
X66001Y154319D01*
X67667D01*
X68500Y155152D01*
X63502Y162650D02*
X68500D01*
Y160151D01*
X67667Y159318D01*
X66001D01*
X65168Y160151D01*
Y162650D01*
X68500Y164316D02*
X67667D01*
Y165149D01*
X68500D01*
Y164316D01*
Y173480D02*
X63502D01*
Y175979D01*
X64335Y176812D01*
X66001D01*
X66834Y175979D01*
Y173480D01*
Y175146D02*
X68500Y176812D01*
X65168Y178478D02*
X67667D01*
X68500Y179311D01*
Y181810D01*
X65168D01*
X68500Y183476D02*
X65168D01*
X65168Y185976D01*
X66001Y186809D01*
X68500D01*
Y193473D02*
Y195139D01*
Y194306D01*
X63502D01*
X64335Y193473D01*
X44847Y113524D02*
X44842Y111858D01*
X45672Y111022D01*
X49004Y111012D01*
X49840Y111842D01*
X49845Y113508D01*
X49015Y114344D01*
X45683Y114355D01*
X44847Y113524D01*
X46524Y116851D02*
X46530Y118517D01*
X47365Y119348D01*
X49865Y119339D01*
X49856Y116840D01*
X49021Y116010D01*
X48190Y116846D01*
X48199Y119345D01*
X49870Y121005D02*
X49878Y123505D01*
X49048Y124340D01*
X48212Y123510D01*
X48207Y121844D01*
X47371Y121014D01*
X46541Y121850D01*
X46549Y124349D01*
X49887Y126004D02*
X49892Y127670D01*
X49889Y126837D01*
X46557Y126848D01*
X46554Y126015D01*
X49900Y130169D02*
X49909Y132668D01*
X49078Y133504D01*
X48243Y132674D01*
X48237Y131008D01*
X47401Y130177D01*
X46571Y131013D01*
X46579Y133512D01*
X44935Y140182D02*
X49933Y140166D01*
X47434Y140174D01*
X47445Y143506D01*
X44946Y143515D01*
X49944Y143498D01*
X49958Y147663D02*
X49953Y145997D01*
X49117Y145167D01*
X47451Y145173D01*
X46620Y146008D01*
X46626Y147674D01*
X47462Y148505D01*
X48295Y148502D01*
X48284Y145170D01*
X46637Y151007D02*
X46642Y152673D01*
X47478Y153503D01*
X49977Y153495D01*
X49969Y150996D01*
X49133Y150165D01*
X48303Y151001D01*
X48311Y153500D01*
X45820Y156008D02*
X46653Y156005D01*
X46651Y155172D01*
X46656Y156838D01*
X46653Y156005D01*
X49153Y155997D01*
X49988Y156827D01*
X50005Y161825D02*
X49999Y160159D01*
X49164Y159329D01*
X47497Y159335D01*
X46667Y160170D01*
X46673Y161836D01*
X47508Y162667D01*
X48342Y162664D01*
X48331Y159332D01*
X46681Y164336D02*
X50013Y164325D01*
X48347Y164330D01*
X47517Y165166D01*
X46686Y166002D01*
X46689Y166835D01*
X45048Y174338D02*
X45059Y177670D01*
X45053Y176004D01*
X50052Y175987D01*
X50071Y181819D02*
X50065Y180153D01*
X49230Y179322D01*
X47563Y179328D01*
X46733Y180164D01*
X46739Y181830D01*
X47574Y182660D01*
X48408Y182657D01*
X48397Y179325D01*
X50079Y184318D02*
X50087Y186817D01*
X49257Y187653D01*
X48421Y186823D01*
X48416Y185157D01*
X47580Y184326D01*
X46750Y185162D01*
X46758Y187661D01*
X45933Y190163D02*
X46766Y190160D01*
X46763Y189327D01*
X46769Y190993D01*
X46766Y190160D01*
X49265Y190152D01*
X50101Y190982D01*
X50109Y193482D02*
X50115Y195148D01*
X50112Y194315D01*
X46780Y194326D01*
X46777Y193493D01*
X50123Y197647D02*
X46791Y197658D01*
X46799Y200157D01*
X47635Y200987D01*
X50134Y200979D01*
X51811Y204306D02*
X51814Y205139D01*
X50984Y205975D01*
X46818Y205989D01*
X46810Y203489D01*
X47640Y202654D01*
X49307Y202648D01*
X50142Y203478D01*
X50151Y205978D01*
X73012Y111082D02*
X79010Y111027D01*
X77011Y111046D01*
X73049Y115081D01*
X76020Y112054D01*
X79046Y115026D01*
X79065Y117025D02*
X79083Y119024D01*
X79074Y118025D01*
X75075Y118061D01*
X75066Y117062D01*
X79138Y125022D02*
X79119Y123023D01*
X78111Y122032D01*
X76111Y122051D01*
X75121Y123059D01*
X75139Y125059D01*
X76148Y126049D01*
X77148Y126040D01*
X77111Y122042D01*
X75167Y128058D02*
X79165Y128021D01*
X77166Y128039D01*
X76175Y129048D01*
X75185Y130057D01*
X75194Y131057D01*
X75230Y135055D02*
X75249Y137054D01*
X76257Y138045D01*
X79256Y138017D01*
X79229Y135019D01*
X78220Y134028D01*
X77230Y135037D01*
X77257Y138036D01*
X79275Y140017D02*
X75276Y140053D01*
X75304Y143052D01*
X76312Y144043D01*
X79311Y144015D01*
X74423Y156057D02*
X73414Y155066D01*
X73396Y153067D01*
X74386Y152058D01*
X75386Y152049D01*
X76394Y153039D01*
X76413Y155039D01*
X77421Y156029D01*
X78421Y156020D01*
X79412Y155011D01*
X79393Y153012D01*
X78385Y152022D01*
X75440Y158047D02*
X78439Y158019D01*
X79448Y159010D01*
X78458Y160019D01*
X79466Y161009D01*
X78476Y162018D01*
X75477Y162045D01*
X79521Y167007D02*
X79503Y165008D01*
X78494Y164017D01*
X76495Y164035D01*
X75504Y165044D01*
X75523Y167043D01*
X76531Y168034D01*
X77531Y168025D01*
X77495Y164026D01*
X79576Y173005D02*
X79558Y171005D01*
X78549Y170015D01*
X76550Y170033D01*
X75559Y171042D01*
X75577Y173041D01*
X76586Y174032D01*
X77586Y174023D01*
X77549Y170024D01*
X79603Y176004D02*
X75605Y176040D01*
X75632Y179039D01*
X76641Y180029D01*
X79640Y180002D01*
X79685Y185000D02*
X79667Y183001D01*
X78658Y182011D01*
X76659Y182029D01*
X75669Y183038D01*
X75687Y185037D01*
X76696Y186027D01*
X77695Y186018D01*
X77659Y182020D01*
X75714Y188036D02*
X78713Y188008D01*
X79722Y188999D01*
X79749Y191998D01*
X80749Y191989D01*
X81739Y190980D01*
X81730Y189980D01*
X79749Y191998D02*
X75751Y192034D01*
X54339Y111027D02*
X59337Y111009D01*
X57677Y112681D01*
X59349Y114341D01*
X54351Y114359D01*
X59355Y116008D02*
X56034Y119351D01*
X54391Y126022D02*
X54402Y129354D01*
X54397Y127688D01*
X59395Y127670D01*
X59415Y133502D02*
X59409Y131836D01*
X58574Y131006D01*
X56907Y131011D01*
X56077Y131847D01*
X56083Y133513D01*
X56919Y134344D01*
X57752Y134341D01*
X57740Y131008D01*
X59433Y138500D02*
X59427Y136834D01*
X58591Y136004D01*
X56925Y136010D01*
X56094Y136846D01*
X56100Y138512D01*
X56936Y139342D01*
X57769Y139339D01*
X57758Y136007D01*
X59441Y140999D02*
X56109Y141011D01*
X56117Y143510D01*
X56954Y144340D01*
X59453Y144332D01*
X59458Y145998D02*
X59467Y148497D01*
X58637Y149333D01*
X57801Y148503D01*
X57795Y146836D01*
X56959Y146006D01*
X56129Y146842D01*
X56138Y149341D01*
X56143Y151007D02*
X58643Y150999D01*
X59479Y151829D01*
X59487Y154328D01*
X60320Y154325D01*
X61150Y153489D01*
X61148Y152656D01*
X59487Y154328D02*
X56155Y154340D01*
X55345Y161007D02*
X54515Y161843D01*
X54521Y163509D01*
X55357Y164339D01*
X56190Y164337D01*
X57020Y163500D01*
X57017Y162668D01*
X57020Y163500D01*
X57856Y164331D01*
X58689Y164328D01*
X59519Y163492D01*
X59513Y161826D01*
X58677Y160996D01*
X59528Y165991D02*
X58694Y165994D01*
X58697Y166827D01*
X59531Y166824D01*
X59528Y165991D01*
X59553Y173489D02*
X59542Y170156D01*
X56221Y173500D01*
X55388Y173503D01*
X54552Y172673D01*
X54546Y171007D01*
X55377Y170171D01*
X59577Y180153D02*
X59585Y182652D01*
X58755Y183488D01*
X57919Y182658D01*
X57913Y180992D01*
X57077Y180162D01*
X56247Y180998D01*
X56256Y183497D01*
X59597Y185985D02*
X59602Y187651D01*
X58772Y188487D01*
X57106Y188492D01*
X56270Y187662D01*
X56265Y185996D01*
X57095Y185160D01*
X58761Y185154D01*
X59597Y185985D01*
X56291Y193493D02*
X56282Y190994D01*
X57112Y190158D01*
X58778Y190153D01*
X59614Y190983D01*
X59623Y193482D01*
X59628Y195148D02*
X54630Y195165D01*
X57962Y195154D02*
X56305Y197659D01*
X57962Y195154D02*
X59637Y197647D01*
X59654Y202646D02*
X59649Y200979D01*
X58813Y200149D01*
X57147Y200155D01*
X56316Y200991D01*
X56322Y202657D01*
X57158Y203487D01*
X57991Y203485D01*
X57980Y200152D01*
X55501Y205992D02*
X56334Y205989D01*
X56331Y205156D01*
X56337Y206822D01*
X56334Y205989D01*
X58833Y205981D01*
X59669Y206811D01*
X59168Y72999D02*
X61834D01*
X60501D01*
Y69001D01*
X63167D02*
Y72999D01*
X65166D01*
X65833Y72333D01*
Y71000D01*
X65166Y70334D01*
X63167D01*
X69832Y69001D02*
X67166D01*
X69832Y71666D01*
Y72333D01*
X69165Y72999D01*
X67832D01*
X67166Y72333D01*
X73835Y72999D02*
X76501D01*
X75168D01*
Y69001D01*
X77834D02*
Y72999D01*
X79833D01*
X80499Y72333D01*
Y71000D01*
X79833Y70334D01*
X77834D01*
X81832Y69001D02*
X83165D01*
X82499D01*
Y72999D01*
X81832Y72333D01*
X68505Y30499D02*
X67506Y31499D01*
X65506D01*
X64507Y30499D01*
Y26500D01*
X65506Y25501D01*
X67506D01*
X68505Y26500D01*
Y28500D01*
X66506D01*
X70504Y25501D02*
Y31499D01*
X74503Y25501D01*
Y31499D01*
X76503D02*
Y25501D01*
X79502D01*
X80501Y26500D01*
Y30499D01*
X79502Y31499D01*
X76503D01*
X82501Y24501D02*
X86499D01*
X92497Y25501D02*
X88499D01*
X92497Y29500D01*
Y30499D01*
X91498Y31499D01*
X89498D01*
X88499Y30499D01*
X94497D02*
X95496Y31499D01*
X97496D01*
X98496Y30499D01*
Y29500D01*
X97496Y28500D01*
X98496Y27500D01*
Y26500D01*
X97496Y25501D01*
X95496D01*
X94497Y26500D01*
Y27500D01*
X95496Y28500D01*
X94497Y29500D01*
Y30499D01*
X95496Y28500D02*
X97496D01*
X100495Y31499D02*
Y27500D01*
X102494Y25501D01*
X104493Y27500D01*
Y31499D01*
X74023Y47598D02*
X73031Y48605D01*
X71032Y48620D01*
X70025Y47628D01*
X69995Y43629D01*
X70987Y42622D01*
X72986Y42607D01*
X73993Y43599D01*
X74008Y45598D01*
X72009Y45613D01*
X75985Y42584D02*
X76030Y48582D01*
X79984Y42554D01*
X80029Y48552D01*
X82028Y48537D02*
X81983Y42539D01*
X84982Y42516D01*
X85989Y43508D01*
X86019Y47507D01*
X85027Y48514D01*
X82028Y48537D01*
X87973Y41494D02*
X91972Y41463D01*
X98023Y48415D02*
X94024Y48446D01*
X94001Y45447D01*
X96008Y46431D01*
X97008Y46424D01*
X98000Y45417D01*
X97985Y43417D01*
X96978Y42425D01*
X94978Y42440D01*
X93986Y43448D01*
X100022Y48400D02*
X99992Y44402D01*
X101976Y42387D01*
X103990Y44372D01*
X104021Y48370D01*
X93502Y66000D02*
X97500Y66000D01*
X95501Y67999D02*
X95501Y64001D01*
X103498Y68999D02*
X99500Y68999D01*
X99500Y66000D01*
X101499Y67000D01*
X102499Y67000D01*
X103498Y66000D01*
X103498Y64000D01*
X102499Y63001D01*
X100499Y63001D01*
X99500Y64001D01*
X88003Y11383D02*
X92002Y11441D01*
X89973Y13411D02*
X90032Y9413D01*
X98043Y8531D02*
X94045Y8472D01*
X97984Y12529D01*
X97970Y13529D01*
X96956Y14513D01*
X94956Y14484D01*
X93972Y13470D01*
X99969Y13558D02*
X100954Y14572D01*
X102953Y14602D01*
X103967Y13617D01*
X103982Y12617D01*
X102997Y11603D01*
X104011Y10618D01*
X104026Y9618D01*
X103041Y8604D01*
X101042Y8575D01*
X100028Y9560D01*
X100013Y10559D01*
X100998Y11573D01*
X99984Y12558D01*
X99969Y13558D01*
X100998Y11573D02*
X102997Y11603D01*
X104100Y225400D02*
Y231398D01*
X107099D01*
X108099Y230398D01*
Y228399D01*
X107099Y227399D01*
X104100D01*
X114097Y231398D02*
X110098D01*
Y228399D01*
X112097Y229399D01*
X113097D01*
X114097Y228399D01*
Y226400D01*
X113097Y225400D01*
X111098D01*
X110098Y226400D01*
X7100Y225400D02*
Y231398D01*
X10099D01*
X11099Y230398D01*
Y228399D01*
X10099Y227399D01*
X7100D01*
X16097Y225400D02*
Y231398D01*
X13098Y228399D01*
X17097D01*
X85600Y225400D02*
Y231398D01*
X88599D01*
X89599Y230398D01*
Y228399D01*
X88599Y227399D01*
X85600D01*
X95597Y225400D02*
X91598D01*
X95597Y229399D01*
Y230398D01*
X94597Y231398D01*
X92598D01*
X91598Y230398D01*
X25600Y225400D02*
Y231398D01*
X28599D01*
X29599Y230398D01*
Y228399D01*
X28599Y227399D01*
X25600D01*
X31598Y225400D02*
X33597D01*
X32598D01*
Y231398D01*
X31598Y230398D01*
X40001Y93499D02*
X40001Y88501D01*
X41001Y87501D01*
X43000Y87501D01*
X44000Y88501D01*
X44000Y93499D01*
X45999Y87501D02*
X47999Y87501D01*
X46999Y87501D01*
X46999Y93499D01*
X45999Y92499D01*
X47499Y69501D02*
X41501D01*
Y72500D01*
X42501Y73500D01*
X44500D01*
X45500Y72500D01*
Y69501D01*
Y71501D02*
X47499Y73500D01*
Y75499D02*
Y77499D01*
Y76499D01*
X41501D01*
X42501Y75499D01*
X11505Y7999D02*
Y2001D01*
Y5000D01*
X15503D01*
Y7999D01*
Y2001D01*
X17503Y7999D02*
X21501D01*
X19502D01*
Y2001D01*
X23501D02*
Y7999D01*
X26500D01*
X27499Y6999D01*
Y5000D01*
X26500Y4000D01*
X23501D01*
X25500D02*
X27499Y2001D01*
X35497Y5000D02*
X39496D01*
X12053Y46517D02*
Y52515D01*
X14052Y50516D01*
X16051Y52515D01*
Y46517D01*
X18051D02*
X20050D01*
X19050D01*
Y52515D01*
X18051Y51515D01*
X48001Y5000D02*
X51999D01*
X50000Y6999D02*
Y3001D01*
X25501Y30999D02*
Y25001D01*
X28500D01*
X29500Y26001D01*
Y29999D01*
X28500Y30999D01*
X25501D01*
X31499Y25001D02*
X33499D01*
X32499D01*
Y30999D01*
X31499Y29999D01*
X79499Y89543D02*
X80499Y90543D01*
Y92542D01*
X79499Y93542D01*
X75501D01*
X74501Y92542D01*
Y90543D01*
X75501Y89543D01*
X74501Y87544D02*
Y85545D01*
Y86544D01*
X80499D01*
X79499Y87544D01*
X53961Y35024D02*
Y61024D01*
X24961D02*
X53961D01*
X24961Y35024D02*
Y61024D01*
Y35024D02*
X53961D01*
D13*
X55472Y28500D02*
X54764Y28909D01*
Y28091D01*
X55472Y28500D01*
D14*
X37594Y32437D02*
X49406D01*
X37594Y24563D02*
X49406D01*
X37594D02*
X49406D01*
X37594D02*
Y32437D01*
X49406D01*
Y24563D02*
Y32437D01*
X37594Y24563D02*
X49406D01*
X37594D02*
Y32437D01*
X49406D01*
Y24563D02*
Y32437D01*
D15*
X82394Y62000D02*
X82302Y62991D01*
X82029Y63948D01*
X81586Y64839D01*
X80986Y65634D01*
X80250Y66304D01*
X79404Y66828D01*
X78476Y67188D01*
X77498Y67371D01*
X76502D01*
X75524Y67188D01*
X74596Y66828D01*
X73750Y66304D01*
X73014Y65634D01*
X72414Y64839D01*
X71970Y63948D01*
X71698Y62991D01*
X71606Y62000D01*
X71698Y61009D01*
X71970Y60052D01*
X72414Y59161D01*
X73014Y58366D01*
X73750Y57696D01*
X74596Y57172D01*
X75524Y56812D01*
X76502Y56629D01*
X77498D01*
X78476Y56812D01*
X79404Y57172D01*
X80250Y57696D01*
X80986Y58366D01*
X81586Y59161D01*
X82029Y60052D01*
X82302Y61009D01*
X82394Y62000D01*
X70894Y61500D02*
X70802Y62491D01*
X70530Y63448D01*
X70086Y64339D01*
X69486Y65134D01*
X68750Y65804D01*
X67904Y66328D01*
X66976Y66688D01*
X65998Y66871D01*
X65002D01*
X64024Y66688D01*
X63096Y66328D01*
X62250Y65804D01*
X61514Y65134D01*
X60914Y64339D01*
X60470Y63448D01*
X60198Y62491D01*
X60106Y61500D01*
X60198Y60509D01*
X60470Y59552D01*
X60914Y58661D01*
X61514Y57866D01*
X62250Y57196D01*
X63096Y56672D01*
X64024Y56312D01*
X65002Y56129D01*
X65998D01*
X66976Y56312D01*
X67904Y56672D01*
X68750Y57196D01*
X69486Y57866D01*
X70086Y58661D01*
X70530Y59552D01*
X70802Y60509D01*
X70894Y61500D01*
X49744Y68291D02*
X55256D01*
X49744Y79709D02*
X55256D01*
X49744Y68291D02*
Y79709D01*
X55256Y68291D02*
Y79709D01*
X72937Y82717D02*
Y97283D01*
X65063Y82717D02*
Y97283D01*
X72937D01*
X65063Y82717D02*
X72937D01*
X49110Y82126D02*
Y97874D01*
X62890Y82126D02*
Y97874D01*
X49110Y82126D02*
X62890D01*
X49110Y97874D02*
X62890D01*
X34406Y33028D02*
X52594D01*
X34406Y23972D02*
Y33028D01*
Y23972D02*
X52594D01*
Y33028D01*
D16*
X77000Y60032D02*
Y63969D01*
X75032Y62000D02*
X78969D01*
X77000Y60032D02*
Y63969D01*
X75032Y62000D02*
X78969D01*
X65500Y59532D02*
Y63469D01*
X63532Y61500D02*
X67469D01*
X65500Y59532D02*
Y63469D01*
X63532Y61500D02*
X67469D01*
X52500Y72228D02*
Y75772D01*
X50728Y74000D02*
X54272D01*
X67031Y90000D02*
X70968D01*
X69000Y88031D02*
Y91969D01*
X54032Y90000D02*
X57969D01*
X56000Y88032D02*
Y91969D01*
M02*
