G04*
G04 #@! TF.GenerationSoftware,Altium Limited,Altium Designer,20.1.10 (176)*
G04*
G04 Layer_Color=255*
%FSLAX25Y25*%
%MOIN*%
G70*
G04*
G04 #@! TF.SameCoordinates,D9A27F9E-3A59-452F-8F74-A4506583EE45*
G04*
G04*
G04 #@! TF.FilePolarity,Positive*
G04*
G01*
G75*
%ADD12C,0.01000*%
%ADD14C,0.00500*%
%ADD15C,0.00197*%
%ADD16C,0.00394*%
%ADD36R,0.07500X0.07500*%
%ADD37C,0.06102*%
%ADD38R,0.07500X0.07500*%
%ADD39R,0.05906X0.05906*%
%ADD40C,0.05906*%
D12*
X53961Y35024D02*
Y61024D01*
X24961D02*
X53961D01*
X24961Y35024D02*
Y61024D01*
Y35024D02*
X53961D01*
D14*
X37594Y24563D02*
X49406D01*
X37594D02*
Y32437D01*
X49406D01*
Y24563D02*
Y32437D01*
X37594Y24563D02*
X49406D01*
X37594D02*
Y32437D01*
X49406D01*
Y24563D02*
Y32437D01*
D15*
X82394Y62000D02*
X82302Y62991D01*
X82029Y63948D01*
X81586Y64839D01*
X80986Y65634D01*
X80250Y66304D01*
X79404Y66828D01*
X78476Y67188D01*
X77498Y67371D01*
X76502D01*
X75524Y67188D01*
X74596Y66828D01*
X73750Y66304D01*
X73014Y65634D01*
X72414Y64839D01*
X71970Y63948D01*
X71698Y62991D01*
X71606Y62000D01*
X71698Y61009D01*
X71970Y60052D01*
X72414Y59161D01*
X73014Y58366D01*
X73750Y57696D01*
X74596Y57172D01*
X75524Y56812D01*
X76502Y56629D01*
X77498D01*
X78476Y56812D01*
X79404Y57172D01*
X80250Y57696D01*
X80986Y58366D01*
X81586Y59161D01*
X82029Y60052D01*
X82302Y61009D01*
X82394Y62000D01*
X70894Y61500D02*
X70802Y62491D01*
X70530Y63448D01*
X70086Y64339D01*
X69486Y65134D01*
X68750Y65804D01*
X67904Y66328D01*
X66976Y66688D01*
X65998Y66871D01*
X65002D01*
X64024Y66688D01*
X63096Y66328D01*
X62250Y65804D01*
X61514Y65134D01*
X60914Y64339D01*
X60470Y63448D01*
X60198Y62491D01*
X60106Y61500D01*
X60198Y60509D01*
X60470Y59552D01*
X60914Y58661D01*
X61514Y57866D01*
X62250Y57196D01*
X63096Y56672D01*
X64024Y56312D01*
X65002Y56129D01*
X65998D01*
X66976Y56312D01*
X67904Y56672D01*
X68750Y57196D01*
X69486Y57866D01*
X70086Y58661D01*
X70530Y59552D01*
X70802Y60509D01*
X70894Y61500D01*
X49744Y68291D02*
X55256D01*
X49744Y79709D02*
X55256D01*
X49744Y68291D02*
Y79709D01*
X55256Y68291D02*
Y79709D01*
X72937Y82717D02*
Y97283D01*
X65063Y82717D02*
Y97283D01*
X72937D01*
X65063Y82717D02*
X72937D01*
X49110Y82126D02*
Y97874D01*
X62890Y82126D02*
Y97874D01*
X49110Y82126D02*
X62890D01*
X49110Y97874D02*
X62890D01*
X34406Y33028D02*
X52594D01*
X34406Y23972D02*
Y33028D01*
Y23972D02*
X52594D01*
Y33028D01*
D16*
X77000Y60032D02*
Y63969D01*
X75032Y62000D02*
X78969D01*
X77000Y60032D02*
Y63969D01*
X75032Y62000D02*
X78969D01*
X65500Y59532D02*
Y63469D01*
X63532Y61500D02*
X67469D01*
X65500Y59532D02*
Y63469D01*
X63532Y61500D02*
X67469D01*
X52500Y72228D02*
Y75772D01*
X50728Y74000D02*
X54272D01*
X67031Y90000D02*
X70968D01*
X69000Y88031D02*
Y91969D01*
X54032Y90000D02*
X57969D01*
X56000Y88032D02*
Y91969D01*
D36*
X115000Y65000D02*
D03*
X115500Y11000D02*
D03*
Y28000D02*
D03*
X115000Y45000D02*
D03*
D37*
X77000Y62000D02*
D03*
X65500Y61500D02*
D03*
D38*
X49949Y14484D02*
D03*
X37449D02*
D03*
D39*
X109500Y216000D02*
D03*
X12500D02*
D03*
X91000D02*
D03*
X31000D02*
D03*
D40*
X109500Y196000D02*
D03*
Y186000D02*
D03*
Y176000D02*
D03*
Y166000D02*
D03*
Y156000D02*
D03*
Y146000D02*
D03*
Y136000D02*
D03*
Y126000D02*
D03*
Y116000D02*
D03*
Y106000D02*
D03*
Y96000D02*
D03*
Y86000D02*
D03*
Y206000D02*
D03*
X12500Y196000D02*
D03*
Y186000D02*
D03*
Y176000D02*
D03*
Y166000D02*
D03*
Y156000D02*
D03*
Y146000D02*
D03*
Y136000D02*
D03*
Y126000D02*
D03*
Y116000D02*
D03*
Y106000D02*
D03*
Y96000D02*
D03*
Y86000D02*
D03*
Y206000D02*
D03*
X91000Y196000D02*
D03*
Y186000D02*
D03*
Y176000D02*
D03*
Y166000D02*
D03*
Y156000D02*
D03*
Y146000D02*
D03*
Y136000D02*
D03*
Y126000D02*
D03*
Y116000D02*
D03*
Y106000D02*
D03*
Y96000D02*
D03*
Y86000D02*
D03*
Y206000D02*
D03*
X31000Y196000D02*
D03*
Y186000D02*
D03*
Y176000D02*
D03*
Y166000D02*
D03*
Y156000D02*
D03*
Y146000D02*
D03*
Y136000D02*
D03*
Y126000D02*
D03*
Y116000D02*
D03*
Y106000D02*
D03*
Y96000D02*
D03*
Y86000D02*
D03*
Y206000D02*
D03*
M02*
