M48
;Layer_Color=9474304
;FILE_FORMAT=2:5
INCH,TZ
;TYPE=PLATED
T1F00S00C0.03543
T2F00S00C0.04000
%
T01
X-72551Y-219516
X-7000Y-223000
Y-206000
X-7500Y-189000
X-85051Y-219516
X-91500Y-148000
Y-138000
Y-128000
Y-118000
Y-108000
Y-98000
Y-88000
Y-78000
Y-68000
Y-58000
Y-48000
Y-38000
X-110000
Y-48000
Y-58000
Y-68000
Y-78000
Y-88000
Y-98000
Y-108000
Y-118000
Y-128000
Y-138000
Y-148000
X-31500
Y-138000
Y-128000
Y-118000
Y-108000
Y-98000
Y-88000
Y-78000
Y-68000
Y-58000
Y-48000
Y-38000
X-13000
Y-48000
Y-58000
Y-68000
Y-78000
Y-88000
Y-98000
Y-108000
Y-118000
Y-128000
Y-138000
Y-148000
X-7500Y-169000
X-13000Y-28000
Y-18000
X-31500
Y-28000
X-91500
Y-18000
X-110000
Y-28000
T02
X-57000Y-172500
X-45500Y-172000
M30
